<?xml version="1.0" encoding="UTF-8"?><svg id="Layer_2" xmlns="http://www.w3.org/2000/svg" xmlns:xlink="http://www.w3.org/1999/xlink" viewBox="0 0 654.49 811.47"><defs><style>.cls-1{fill:url(#linear-gradient-2);}.cls-2{opacity:.94;}.cls-2,.cls-3{fill:#f4da8a;}.cls-4{fill:#fff;}.cls-5{stroke-width:6.25px;}.cls-5,.cls-6,.cls-7,.cls-8,.cls-9,.cls-10,.cls-11{fill:none;stroke-miterlimit:10;}.cls-5,.cls-6,.cls-7,.cls-9,.cls-10,.cls-11{stroke:#000;}.cls-12{fill:#b16a42;opacity:.29;}.cls-6{stroke-width:4.67px;}.cls-13{fill:#e7a046;}.cls-7{stroke-width:5.36px;}.cls-8{stroke:#1d1d1b;stroke-width:5.72px;}.cls-9{stroke-width:7.81px;}.cls-10{stroke-width:3.13px;}.cls-11{stroke-width:7.3px;}.cls-14{fill:#ff9572;}.cls-15{fill:url(#linear-gradient);}.cls-16{fill:#1d1d1b;}</style><linearGradient id="linear-gradient" x1="680.03" y1="270.69" x2="470.51" y2="459.02" gradientTransform="matrix(1, 0, 0, 1, 0, 0)" gradientUnits="userSpaceOnUse"><stop offset="0" stop-color="#f1e59a"/><stop offset=".18" stop-color="#f1e59a" stop-opacity=".81"/><stop offset=".58" stop-color="#f1e59a" stop-opacity=".38"/><stop offset=".87" stop-color="#f1e59a" stop-opacity=".11"/><stop offset="1" stop-color="#f1e59a" stop-opacity="0"/></linearGradient><linearGradient id="linear-gradient-2" x1="679.62" y1="236.36" x2="345.92" y2="425.28" xlink:href="#linear-gradient"/></defs><g id="Layer_1-2"><g><g><circle class="cls-3" cx="545.14" cy="407.24" r="69.95"/><path class="cls-13" d="M490.52,363.54c13.15-16.44,32.21-25.35,51.71-26.17,8.54,2.25,16.76,6.27,24.1,12.14,28.16,22.53,32.73,63.62,10.2,91.78-18.75,23.43-50.35,30.51-76.65,19.25-28.75-24.39-33.06-67.37-9.36-97Z"/><path class="cls-15" d="M490.52,363.54c13.15-16.44,32.21-25.35,51.71-26.17,8.54,2.25,16.76,6.27,24.1,12.14,28.16,22.53,32.73,63.62,10.2,91.78-18.75,23.43-50.35,30.51-76.65,19.25-28.75-24.39-33.06-67.37-9.36-97Z"/><circle class="cls-5" cx="545.14" cy="407.24" r="69.95"/><path d="M544.18,474.98c20.65-8.54,34.22-30.67,32.06-52.92-1.19-16.77-11.34-31.94-25.44-40.94-4.72-3.11-9.91-5.59-15.46-7.62,11.87,.32,23.64,6.11,31.99,15.02,27.49,28.87,16.32,77.72-21.25,91.31l-1.9-4.85h0Z"/><path d="M545.18,337.29c15.32,0,30.76,5.01,43.65,15.33,30.17,24.13,35.06,68.15,10.92,98.32-13.82,17.27-34.15,26.25-54.66,26.25-15.33,0-30.76-5.01-43.65-15.33-30.17-24.13-35.06-68.15-10.92-98.32,13.82-17.27,34.15-26.25,54.66-26.25m0-6.25c-23.3,0-45.01,10.42-59.55,28.6-12.72,15.89-18.48,35.79-16.23,56.02,2.25,20.23,12.24,38.37,28.13,51.09,13.46,10.77,30.35,16.7,47.56,16.7,23.3,0,45.01-10.42,59.55-28.6,26.25-32.81,20.91-80.86-11.9-107.11-13.46-10.77-30.35-16.7-47.56-16.7h0Z"/></g><g><path class="cls-13" d="M623.11,586.19c2.35-16.72,2.15-35.42-.64-56.02-4.03-29.82-13.18-58.56-26.45-83.11-14.71-27.22-34.11-49.19-57.66-65.29-15.43-10.55-32.19-18.51-49.81-23.64-3.07-.89-15.54-3.37-19.9-4.23-3.94-4.79-20.16-25.71-24.14-50.61-3.98-24.87-13.65-46.75-16.21-52.24,12.86-53.94,2.04-90.15-9.38-111.08-11.02-20.21-24.47-30.34-28.11-32.83-1.88-4.06-3.83-8.05-5.53-12.23-7.01-16.42-14.22-34.13-20.99-50.71-5.29-12.45-7.77-26.87-18.36-36.46-7.8-7-18.35-7.6-26.7-1.25-9.2,6.92-14.43,16.69-19.99,26.08-2.69,4.54-5.37,9.33-7.63,14.08-2.4,5.13-4.72,10.39-6.43,15.81-44.79-5.91-71.53,6.15-77.72,9.38-51.69-12.11-85.93-10.28-98.33-8.92-3.03,.33-5.79,1.95-7.55,4.43-1.76,2.47-2.38,5.58-1.7,8.53,1.46,6.34,2.67,12.93,3.83,19.3,5.49,29.9,11.16,60.79,44.12,89.93-.21,1.47-.44,2.95-.69,4.45-1.72,12.03-10.15,19.99-16.22,30.59-7.08,12.73-9.16,28.29-5.48,42.41,5.84,20.91,21.81,38.15,41.19,50.87l-.29,.85c-3.13,9.21-6.37,18.74-9.25,28.18-4.68,15.34-18.23,27.05-31.33,38.36-5.63,4.86-11.45,9.89-16.34,15.06-11.59,12.25-21.23,26.18-30.56,39.65-8.84,12.77-17.98,25.97-28.62,37.44-5.77,6.23-11.83,11.28-18.01,15.02-2.03,1.23-4.18,2.28-6.25,3.3-4.57,2.24-9.3,4.55-13.35,8.96-11.07,12.05-13.62,28.5-6.82,44.02,7.13,16.25,22.67,26.76,39.59,26.77h.03c18,0,33.34-9.44,43.64-18.13,4.25,4.71,9.3,8.7,14.7,11.75,19.56,10.95,42.14,13.07,64.01,14.15,31.08,1.58,61.52-2.75,91.63-9.28,4.5,5.94,9.6,11.38,15.16,16.28,18.26,15.95,40.93,25.84,63.88,32.88,.32,.1,.63,.19,.95,.28,6.67,28.32,25.6,53.73,55,73.72,15.01,10.2,31.21,17.49,46.87,24.54,7.7,3.46,15.66,7.05,23.39,10.93,23.85,11.99,27.15,24.12,27.6,27.55,.58,4.45-.89,8.95-2.44,13.72-2.72,8.38-5.81,17.87,3.52,26.89,9.41,9.09,22.32,13.06,35.34,13.06,15.46,0,31.05-5.61,41.06-14.95,22.87-21.33,20.13-53.63,13.45-80.06,3.95,2.97,8.18,5.57,12.74,7.67,5.2,2.4,10.65,3.61,16.03,3.61,4.69,0,9.34-.92,13.74-2.76,10.18-4.25,18.35-13.14,22.42-24.39,13-35.93-6.26-80.68-25.06-112.32Z"/><path class="cls-2" d="M623.11,586.19c1.27-9.02,1.79-18.63,1.56-28.79l-4.14-6.35c-81.43,14.97-66-106.4-66-106.4l-88.28,37.84c-51.2-33.28-16.77-80.3-16.77-80.3-37.96,.29-42.37,18.24-42.37,18.24-26.48-75.92-74.32-69.88-74.32-69.88,2.48-50.46,51.28-67.71,51.28-67.71,55.4-39.97,43.45-106.3,41.32-116.14l1.96-7.1c-2.49-7.62-5.44-14.16-8.42-19.64-7.96-14.6-17.18-23.92-23.06-28.92,.72,4.04,1.37,8.1,1.94,12.17,1.8,12.91,2.77,26.46-1.95,38.61-7,18.04-25.95,28.67-44.9,26.6-16.98-1.85-34.68-8.1-42.83,12.29-2.32,5.79-4.71,10.12-6.77,13.25-2.81,4.26-7.54,6.88-12.64,7.1l-12.22,.54c-6.42,.28-9.15,8.24-4.3,12.46,7.28,6.33,11.41,12.05,11.41,12.05l.75,17.45s-.3,6.9-10.66,37.08c-10.36,30.19-27.43,26.64-27.43,26.64-15.9,3.81-27.99-39.72-27.99-39.72l-21.84-4.1-7.54,7.34c-21.33-12.83-26.49-25.04-26.49-25.04-8.29-19.67,11.94-35.43,11.94-35.43-27.54-4.44-25.42-29.92-25.42-29.92l-4.55-1.11c-.24,.31-.48,.62-.72,.93-3.46,6.81-8.62,12.77-12.71,19.92-7.08,12.73-9.16,28.29-5.48,42.41,3.85,13.8,12.13,26,22.88,36.36l28.73,17.01c-8.43,28-7.35,75.95-7.35,75.95-41.4,10.29-84.98,47.93-84.98,47.93,0,0-4.24,1.21-11.04,3.17-7.26,10.36-14.86,20.74-23.44,29.99-5.77,6.23-11.83,11.28-18.01,15.02-2.03,1.23-4.18,2.28-6.25,3.3-4.57,2.24-9.3,4.55-13.35,8.96-11.07,12.05-13.62,28.5-6.82,44.02,7.13,16.25,22.67,26.76,39.59,26.77h.03c18,0,33.34-9.44,43.64-18.13,4.25,4.71,9.3,8.7,14.7,11.75,19.56,10.95,42.14,13.07,64.01,14.15,31.08,1.58,61.52-2.75,91.63-9.28,4.5,5.94,9.6,11.38,15.16,16.28,17.3,15.11,38.58,24.79,60.29,31.75l8.73-1.14s68.85,26.23,144.34-5.52l21.06,23.68s-72.62,67.47-165.4-18.16c1.39,19.46,16.07,35.7,16.07,35.7,9.63,10.82-1.45,33.74,103.49,70.93,32.39,15.78,31.57,37.34,29.42,50.63-3.56,22.02,8.59,23.78,8.59,23.78l39.11,10.88,29.95-19.96s17.92-7.75,15.63-61.83c-.75-4.15-1.66-8.23-2.66-12.18,3.95,2.97,8.18,5.57,12.74,7.67,5.2,2.4,10.65,3.61,16.03,3.61,4.69,0,9.34-.92,13.74-2.76,10.18-4.25,18.35-13.14,22.42-24.39,13-35.93-6.26-80.68-25.06-112.32Z"/><path class="cls-3" d="M352.33,52.91c-16.56-38.17-16.84-48.55-38.19-41.93-6.21,6.34-10.45,14.08-14.89,21.58-2.69,4.54-5.37,9.33-7.63,14.08-2.4,5.13-4.72,10.39-6.43,15.81l-.69,15.39s20.64,43.32,71.18,74.22c0,0,16.92-52.42-3.35-99.15Z"/><path class="cls-3" d="M101.59,67.35c-1.76,2.47-2.38,5.58-1.7,8.53,1.46,6.34,2.67,12.93,3.83,19.3,5.44,29.62,11.07,60.22,43.24,89.12,3.94,.5,6.48,.81,6.48,.81,0,0-7.11-57.49,23.46-85.38,0,0-42.51-30.09-73.35-34.46-.74,.6-1.41,1.29-1.97,2.08Z"/><path class="cls-1" d="M623.11,586.19c2.35-16.72,2.15-35.42-.64-56.02-4.03-29.82-13.18-58.56-26.45-83.11-14.71-27.22-34.11-49.19-57.66-65.29-15.43-10.55-32.19-18.51-49.81-23.64-3.07-.89-15.54-3.37-19.9-4.23-3.94-4.79-20.16-25.71-24.14-50.61-3.98-24.87-13.65-46.75-16.21-52.24,12.86-53.94,2.04-90.15-9.38-111.08-11.02-20.21-24.47-30.34-28.11-32.83-1.88-4.06-3.83-8.05-5.53-12.23-7.01-16.42-14.22-34.13-20.99-50.71-5.29-12.45-7.77-26.87-18.36-36.46-7.8-7-18.35-7.6-26.7-1.25-9.2,6.92-14.43,16.69-19.99,26.08-2.69,4.54-5.37,9.33-7.63,14.08-2.4,5.13-4.72,10.39-6.43,15.81-44.79-5.91-71.53,6.15-77.72,9.38-51.69-12.11-85.93-10.28-98.33-8.92-3.03,.33-5.79,1.95-7.55,4.43-1.76,2.47-2.38,5.58-1.7,8.53,1.46,6.34,2.67,12.93,3.83,19.3,5.49,29.9,11.16,60.79,44.12,89.93-.21,1.47-.44,2.95-.69,4.45-1.72,12.03-10.15,19.99-16.22,30.59-7.08,12.73-9.16,28.29-5.48,42.41,5.84,20.91,21.81,38.15,41.19,50.87l-.29,.85c-3.13,9.21-6.37,18.74-9.25,28.18-4.68,15.34-18.23,27.05-31.33,38.36-5.63,4.86-11.45,9.89-16.34,15.06-11.59,12.25-21.23,26.18-30.56,39.65-8.84,12.77-17.98,25.97-28.62,37.44-5.77,6.23-11.83,11.28-18.01,15.02-2.03,1.23-4.18,2.28-6.25,3.3-4.57,2.24-9.3,4.55-13.35,8.96-11.07,12.05-13.62,28.5-6.82,44.02,7.13,16.25,22.67,26.76,39.59,26.77h.03c18,0,33.34-9.44,43.64-18.13,4.25,4.71,9.3,8.7,14.7,11.75,19.56,10.95,42.14,13.07,64.01,14.15,31.08,1.58,61.52-2.75,91.63-9.28,4.5,5.94,9.6,11.38,15.16,16.28,18.26,15.95,40.93,25.84,63.88,32.88,.32,.1,.63,.19,.95,.28,6.67,28.32,25.6,53.73,55,73.72,15.01,10.2,31.21,17.49,46.87,24.54,7.7,3.46,15.66,7.05,23.39,10.93,23.85,11.99,27.15,24.12,27.6,27.55,.58,4.45-.89,8.95-2.44,13.72-2.72,8.38-5.81,17.87,3.52,26.89,9.41,9.09,22.32,13.06,35.34,13.06,15.46,0,31.05-5.61,41.06-14.95,22.87-21.33,20.13-53.63,13.45-80.06,3.95,2.97,8.18,5.57,12.74,7.67,5.2,2.4,10.65,3.61,16.03,3.61,4.69,0,9.34-.92,13.74-2.76,10.18-4.25,18.35-13.14,22.42-24.39,13-35.93-6.26-80.68-25.06-112.32Z"/><path d="M202.72,81.22c-6.87,5.21-13.37,9.87-19.35,15.74-12.85,12.86-21.72,29.72-24.48,47.77-2.56,16.02-1.87,32.72-5.5,48.75-2.4,12.32-12.29,21.75-17.61,32.16-.73,1.37-1.37,2.91-1.87,4.38-.78,2.22-1.62,4.68-2.1,6.97-11.05,48.79,50.63,85.28,91.55,92.94l1.45,.27,.72,1.26c.09,.16,.33,.53,.52,.8,9.44,13.14,25.61,14.11,39.82,8.48,5.92-2.17,11.24-5.4,16.27-9.24,2.56-1.92,5.01-4.09,7.69-6.15l1.55,1.39c-5.19,8.97-13.4,16.31-23.11,20.11-16.82,7.32-36.29,4.56-47.36-11.01-.28-.41-.51-.73-.83-1.28l2.17,1.53c-38.13-7.38-85.71-33.87-96.79-73.55-3.68-14.11-1.6-29.68,5.48-42.41,6.07-10.6,14.49-18.56,16.22-30.59,5.47-32.31,.04-55.17,21.4-84.95,7.25-9.96,16.35-19.54,28.17-23.87,1.66-.64,3.41-1.07,5.15-1.44l.83,1.91h0Z"/><path class="cls-11" d="M153.45,185.11c-42.37-35.4-41.69-73.87-50-110.04-.94-4.09,1.92-8.06,6.09-8.52,13.96-1.53,48.44-2.71,98.46,9.17,0,0,28.44-17.05,80.62-9.09"/><path d="M282.47,77.39c.32-10.85,4.63-21.05,9.15-30.74,2.26-4.76,4.93-9.54,7.63-14.08,5.56-9.39,10.79-19.16,19.99-26.08,8.35-6.34,18.9-5.75,26.7,1.25,10.59,9.59,13.07,24.01,18.36,36.46,6.77,16.58,13.98,34.29,20.99,50.71,5,12.32,12.69,24,13,37.9,.11,5.64-1.71,11.63-5.61,15.73l-1.71-1.19c2.2-4.48,2.72-9.3,1.9-14.12-1.76-9.91-7.18-18.67-11.56-27.87-1.91-4-4.7-10.31-6.55-14.44-7.26-16.46-15.02-34.1-21.4-50.97-2.41-6.67-5.02-15.01-8.74-20.74-15.03-22.55-30.45,3.2-38.73,17.3-2.64,4.33-5.3,8.9-7.53,13.43-3.38,6.58-6.13,14.28-8.84,21.18-.96,2.38-1.86,4.79-2.97,7.17l-4.07-.91h0Z"/><path d="M357.17,147.8c1.24-7.7,2.5-15.25,3.21-22.92,2.1-23.08-1.83-46.35-8.8-68.35-3.47-11.06-7.7-21.89-12.58-32.4-1.57-3.35-3.02-6.78-5.78-9.16-2.48-2.14-6-3.2-9.14-2.11-9.11,3.6-15.79,17.62-19.64,26.32l-2.9-1.18c4.12-9.82,12.72-28.28,24.76-29.11,8.48-.22,13.08,6.83,15.95,13.72,4.96,10.66,9.26,21.61,12.79,32.83,6.98,22.45,10.76,46.22,8.47,69.73-.75,7.83-2.3,15.65-5.35,22.91l-1-.29h0Z"/><path class="cls-10" d="M103.45,75.07s7.27-21.93,73.46,24.67"/><path d="M363.01,157.3c17.74,9.01,35.28,25.7,37.89,46.36,.75,6.41-.29,12.92-2.49,18.95l-2.42,5.73c-.65,1.68-2.01,3.89-2.81,5.53-16.16,28.73-49.3,52.07-79.9,63.09l-.67-1.41c26.31-16.19,55.59-32.85,72.54-59.5,3.11-4.64,5.88-10.25,8.01-15.43,8.62-22.08-5.96-40.31-22-54.2-2.95-2.63-5.99-5.19-9.01-7.84l.86-1.3h0Z"/><path class="cls-14" d="M220.18,288.6s27.23,6.15,58.09-34.05c0,0,7.7,11.93,0,35.21-7.7,23.28-19.13,33-19.13,33,0,0-12.71,10.56-24.47,.83-11.76-9.74-14.49-34.99-14.49-34.99Z"/><path class="cls-4" d="M251.54,200.83l10.19-.29,6.91-1.82,7.82-4.37,12.31-16.56-14.18-7.04s-4.03-6.27-11.48-2.21c-7.45,4.06-10.9,3.53-14.2,13.05-3.31,9.52-7.56,19.51,2.63,19.22Z"/><path d="M266.96,171.04c1.41-.54,2.85-.79,4.28-.82-.86,1.28-1.1,2.91-.49,4.43,1.01,2.5,3.93,3.73,6.52,2.74,1.61-.62,2.72-1.95,3.09-3.46,1.03,1.06,1.88,2.32,2.46,3.77,2.45,6.09-.69,12.97-7,15.38-6.31,2.41-13.41-.57-15.85-6.65-2.45-6.09,.69-12.97,7-15.38Z"/><path class="cls-4" d="M184.88,199.66s-4.82,4.84-7.79,13.85c0,0-15.01-4.08-11.5-20.99,3.51-16.91,17.16-7.33,17.16-7.33l2.13,14.47Z"/><path class="cls-16" d="M180.49,207.46c1.87-2.33,4.03-6.02,5.8-11.78v-.04c-.88-5.93-4.86-10.26-8.9-9.66-.9,.13-1.73,.51-2.46,1.06,.88,.69,1.57,1.92,1.79,3.4,.36,2.44-.7,4.62-2.36,4.86-1.03,.15-2.06-.48-2.77-1.57-.15,1.28-.15,2.65,.06,4.05,.87,5.9,4.82,10.21,8.84,9.67Z"/><path class="cls-8" d="M185.37,190.98c-2.27-5.08-8.69-9.13-13.91-5.6-4.98,3.37-6.21,10.63-5.53,16.18,.75,6.1,6.67,10.8,12.23,12.54"/><path class="cls-7" d="M289.6,178.39c-6.54-5.89-16.32-11.55-25.64-8.99-9.91,2.71-15.67,13.53-17.52,22.56-1.93,9.41,8.59,10.45,16.15,9.42,10.62-1.45,19.26-8.42,24.72-17.1"/><path d="M162.81,249.14c-1.95,12.72,5.06,24.53,14.68,32.22,1.92,1.59,3.96,3.05,6.09,4.36,.4,.25,1.84,1.12,2.2,1.28,.81,.35,1.77,.29,2.55-.1,.43-.16,1.58-1.34,2.52-2.16,.67-.6,3.19-2.85,3.8-3.39,6.69,1.01,13.96,2.23,20.65,3.4,10.31,2.37,20.73,.49,30.21-4.13,15.7-7.35,27.05-20.96,37.27-34.56-3.58,16.95-19.84,31.84-34.81,39.59-10.25,5.28-22.39,7.39-33.69,4.53-6.26-1.27-13.13-2.67-19.33-4.07l2.03-.59c-.89,.88-3.32,3.28-4.21,4.13-2,2.33-6,3.4-8.93,2.03-15.16-7.7-29.21-25.37-23.05-43.05l2.02,.51h0Z"/><path d="M294.37,252.32c-.37-.79-.79-1.56-1.27-2.3-1.92-2.98-5.51-5.58-8.81-4.3-4.09,1.58-4.28,7.43-7.33,10.59,3.38,4.8,1.61,11.32,.13,17-2.08,7.99-3.3,16.18-5.59,24.11-2.45,8.49-6.19,16.87-13.07,22.61-5.98,5.53-15.15,7.21-21.92,2.1-9.88-7.46-10.57-23.1-11.83-34.36l-11.1-.22c1.38,.03,6.67,12.01,7.19,13.57,2.74,8.3,5.02,17.9,11.13,24.47,9.5,10.22,24.71,6.92,32.58-3.31,5.44-7.07,9.34-15.14,13.24-23.11,3.86-7.87,8.15-15.12,12.77-22.56,3.06-4.92,5.67-10.39,5.67-16.18,0-2.79-.62-5.58-1.8-8.12Z"/><path d="M251.44,282.13c-3.42,5.82-5.09,12.38-4.77,19.17l-.83,.1c-.68-3.41-.97-6.97-.65-10.54,.29-3.56,1.22-7.13,2.46-10.47l3.79,1.73h0Z"/><path d="M215.52,245.83c-1.08-10.57-15.8-13.99-25.86-13.42-10.06,.57-24.26,5.49-24.96,16.67-.79,12.76,13.27,22.31,25.92,21.59,12.35-.71,23.46-10.32,24.86-21.91,.12-1.03,.13-2.01,.04-2.93Z"/><path class="cls-6" d="M187.69,251.47s1.21,18.75,7.69,32.35"/><path d="M287.57,99.08c8.63,4.68,15.98,11.2,23.58,17.33,7.53,6.2,14.98,12.49,22.16,19.11l-1.09,1.26c-2.43-2.12-4.61-4.41-6.67-6.84-12.23-14.55-20.45-33.8-18.42-53.07,.32-3.2,1.04-6.34,1.98-9.38l1.64,.32c-.38,6.22-.47,12.31,.21,18.36,1.77,18.34,10.45,35.57,22.41,49.4,.01,0-1.09,1.26-1.09,1.26-8.06-5.51-15.85-11.37-23.58-17.33-7.66-6.04-15.67-11.75-22.16-19.11l1.04-1.3h0Z"/><path d="M362.04,378.95c-18.38-4.75-37.34-6.7-56.06-3.32-31.42,5.67-59.13,23.27-83.96,42.66-27,21.2-51.09,45.7-76.85,68.49-3.22,2.86-6.62,5.78-10.43,8.32-3.8,2.54-8.12,4.66-12.77,5.77-8.56,2.08-17.29,.73-25.25,3.23-12.07,3.79-14.94,16.25-11.72,27.47,8.79,29.44,43.29,37.09,70.43,39.29,25.44,2.21,51,1.01,76.24-3.09,46.3-7.45,91.69-22.52,137.78-32.19,4.05-.98,8-2.22,11.73-3.81,11.54-4.74,19.34-13.43,19.8-26.26,.23-4.37,.54-8.73,1.06-13.08,2.97-26.08,11.74-51.95,27.54-73.12,5.42-6.95,11.71-13.23,18.87-18.29l2.07,2.34c-11.1,12.82-21.59,25.87-28.68,41.31-7.18,15.2-11.42,31.82-13.31,48.49-.49,4.19-.78,8.41-.99,12.62-.3,9.36-4.5,19-11.89,24.96-7.1,5.95-15.85,9.12-24.59,11.31-12.7,2.87-25.05,5.66-37.61,8.93-53.89,13.92-109.09,30.69-165.61,27.83-13.1-.6-26.12-1.67-39.01-4.7-17.32-4-35.07-12.34-44.92-28.01-6.02-9.32-9.03-21.2-5.84-32.12,2.39-8.05,8.7-13.99,16.52-16.48,4.64-1.48,9.28-1.79,13.6-2.03,15.11-.2,21.48-3.95,32.51-13.81,48.38-42.23,101.17-102.47,167.48-112.75,9.82-1.35,19.88-1.73,29.72-.3,8.73,1.32,17.27,3.78,25.22,7.39l-1.06,2.94h0Z"/><path d="M140.17,530.95c-8.11,.5-16.57,3.63-22.25,9.51-5.73,5.9-7.83,14.19-7.7,22.26l-5.21-.1c.51-14.46,7.9-26.95,22.04-31.58,4.26-1.43,8.62-2.2,13.15-2.17l-.03,2.08h0Z"/><path d="M115.03,514.46c-8.96-.79-19.06,2.54-23.71,10.63-2.81,4.69-3.82,10.16-3.97,15.65l-5.2-.32c.98-12.9,7.69-24.82,21.11-27.62,4.01-.87,8.03-1.02,12.09-.4l-.33,2.06h0Z"/><polygon points="141.06 556.36 132.76 572.23 128.37 569.42 139.3 555.24 141.06 556.36 141.06 556.36"/><path class="cls-9" d="M387.83,109.85s61.66,38.1,36.35,141.63c0,0,12.01,24.51,16.48,52.43,4.71,29.42,25.88,53.54,25.9,53.56,0,0,17.45,3.4,20.91,4.41,17.31,5.04,33.82,12.93,48.7,23.11,48.23,32.98,74.76,88.91,82.44,145.71,4.87,36.02,3.19,76.57-19.64,106.66-14.85,19.57-39.32,28.68-62.24,17.88-18.44-8.69-33-24.59-44.7-42.43"/><path d="M264.1,563.56c18.15,25.23,47.46,39.31,76.53,48.16,14.85,4.47,30.05,8.06,45.46,10.04,65.34,8.03,124.37-10.93,157.93-70.6,7.61-13.55,13.51-27.93,18.4-42.73l2.51,.6c-4.84,31.5-21.02,61.29-44.49,83.44-27.18,26.09-65.26,37.8-102.33,38.33-27.02,.57-53.82-4.22-79.6-12.1-22.95-7.04-45.62-16.94-63.88-32.88-6.1-5.38-11.66-11.4-16.46-18.02l5.95-4.23h0Z"/><path class="cls-9" d="M342.37,614.01c6.2,32.55,27.84,57.48,54.27,75.45,22.04,14.98,46.28,23.38,69.82,35.21,11.21,5.64,27.92,16.67,29.72,30.54,1.79,13.85-12.38,26.42-.07,38.3,18.33,17.7,53.18,14.71,71.02-1.93,23.74-22.14,18.34-57.95,8.65-89.22"/><path class="cls-9" d="M547.64,658.89c10.89,22.83,26,48.55,49.97,59.62,19.62,9.06,39.76-1.62,46.88-21.32,12.85-35.53-7.29-79.92-25.44-110.18"/><path d="M626.48,685.68c2.12,6.7,6.98,12.46,12.57,16.62,.81,.6,1.66,1.14,2.47,1.71l-3.08,4.21c-5.13-4.27-9.47-9.6-12.08-15.77-.86-2.06-1.56-4.1-1.94-6.4l2.05-.37h0Z"/><polygon points="595.77 695.49 611.26 720.52 606.69 723.02 593.94 696.49 595.77 695.49 595.77 695.49"/><path d="M549.33,770.85c-6.75,6.69-8.37,17.26-5.96,26.2,.45,2.06,1.29,4.24,2,6.2l-4.9,1.76c-2.85-9.19-3.29-19.67,1.5-28.29,1.56-2.84,3.47-5.39,6.08-7.5l1.29,1.63h0Z"/><path d="M525.35,766.51c-6.61,11.33-8.97,25.71-4.27,38.16l-4.94,1.66c-3.07-10.46-1.9-21.79,2.38-31.71,1.41-3.26,3.04-6.35,5.12-9.3l1.71,1.19h0Z"/><path d="M507.24,764.43c-3.54,6.04-5.5,13.16-5.63,20.15-.03,4.11,.72,8.26,2.08,12.11l-4.97,1.58c-.72-3.06-1.32-6.15-1.3-9.27-.16-6.11,1.25-12.29,3.66-17.86,1.23-2.78,2.64-5.39,4.46-7.9l1.7,1.2h0Z"/><path d="M309.19,347.12c6.93-20.92,29.71-41.52,48.26-52.67,5.8-3.67,14.09-7.72,20.15-11.03,1.99-1.18,5.37-3.41,7.34-4.64,1.42-1.07,3.51-2.65,4.95-3.71,1.44-.97,4.3-3.65,5.65-4.79,1.73-1.51,3.57-3.62,5.21-5.24,1.12-1.36,2.81-3.36,3.91-4.74,.54-.76,1.58-2.27,2.11-3.01,5.04-7.47,8.98-15.75,11.32-24.48l1.57,.05c.74,16.17-9.23,30.62-20.3,41.48-1.43,1.26-4.43,4.13-5.92,5.2-1.51,1.16-3.71,2.83-5.22,3.97-2.08,1.3-5.63,3.66-7.72,4.9-4.08,2.19-11.71,6.27-15.81,8.35-4.97,2.78-10.13,6.05-14.82,9.3-1.36,1.04-4.61,3.47-6,4.51l-3.84,3.2c-6.33,5.29-12.24,11.46-17.47,17.84-4.24,5.13-8.29,10.5-11.93,16.12l-1.45-.62h0Z"/><path d="M447.68,320.66c6.66,18.82,7.75,39.45,3.85,58.97l-4.09-.78c1.53-9.38,1.9-18.94,.92-28.4-.94-9.32-2.95-18.68-6.44-27.37l5.76-2.43h0Z"/><ellipse class="cls-12" cx="51.79" cy="520.01" rx="8.93" ry="4.36" transform="translate(-91.82 17.55) rotate(-10.26)"/><ellipse class="cls-12" cx="46.95" cy="535.03" rx="9.44" ry="5.6" transform="translate(-168.67 43.13) rotate(-18.65)"/><ellipse class="cls-12" cx="53.62" cy="557.5" rx="12.48" ry="6.93" transform="translate(-211.1 63.94) rotate(-22.71)"/><ellipse class="cls-12" cx="71.78" cy="537.39" rx="6.57" ry="10.07" transform="translate(-274.54 120.25) rotate(-32.09)"/><path class="cls-11" d="M186.13,444.66c-33.65-64.36-9.05-128.72-9.05-128.72"/><path class="cls-11" d="M170.91,312.25c-3.53,10.39-7.12,20.82-10.3,31.28-7.1,23.29-32.52,37.97-48.51,54.87-22.4,23.68-37.13,53.31-59.15,77.06-5.55,5.99-11.8,11.42-18.79,15.66-6.6,4-13.46,5.79-18.81,11.61-22.71,24.71-1.89,64.65,30.09,64.67,16.11,0,31.34-8.29,43.49-19.15"/><path d="M35.46,492.74c-5.87,4.86-9.38,12.59-8.45,20.18,.86,7.88,7.01,13.51,14.47,15.76l-.49,2.45c-4.36-.41-8.82-2.19-12.19-5.41-10.56-10.09-7.11-28.09,4.06-36.24l2.59,3.26h0Z"/><path d="M7.91,529.32c2.74,7.41,9.83,12.69,17.74,13.15,6.52,.48,12.66-1.46,19.02-3.05l.97,2.3c-3.4,2.04-7.16,3.51-11.11,4.36-8.12,1.73-17.32,.8-23.7-5.01-3.22-2.86-5.64-6.48-6.93-10.59l4-1.17h0Z"/><path d="M331.82,2.08c4.99,0,9.94,1.91,14.11,5.65,10.59,9.59,13.07,24.01,18.36,36.46,6.77,16.58,13.98,34.29,20.99,50.71,1.7,4.18,3.64,8.17,5.53,12.23,3.64,2.5,17.09,12.62,28.11,32.83,11.41,20.93,22.24,57.14,9.38,111.08,2.56,5.5,12.24,27.38,16.21,52.24,3.98,24.9,20.19,45.82,24.14,50.61,4.36,.86,16.83,3.33,19.9,4.23,17.62,5.13,34.38,13.08,49.81,23.64,23.55,16.1,42.95,38.07,57.66,65.29,13.27,24.55,22.42,53.3,26.45,83.11,2.79,20.61,2.99,39.31,.64,56.02,18.8,31.64,38.06,76.39,25.06,112.32-4.07,11.25-12.24,20.14-22.42,24.39-4.4,1.84-9.05,2.76-13.74,2.76-5.38,0-10.82-1.21-16.03-3.61-4.56-2.1-8.79-4.7-12.74-7.67,6.68,26.43,9.42,58.73-13.45,80.06-10.01,9.34-25.6,14.95-41.06,14.95-13.02,0-25.93-3.98-35.34-13.06-9.33-9.01-6.25-18.51-3.52-26.89,1.55-4.77,3.01-9.27,2.44-13.72-.44-3.43-3.75-15.56-27.6-27.55-7.73-3.89-15.69-7.47-23.39-10.93-15.66-7.05-31.86-14.33-46.87-24.54-29.4-19.99-48.33-45.4-55-73.72-.32-.1-.63-.19-.95-.28-22.95-7.04-45.62-16.94-63.88-32.88-5.56-4.9-10.66-10.34-15.16-16.28-25.9,5.61-52.05,9.6-78.64,9.6-4.32,0-8.65-.11-12.99-.33-21.86-1.08-44.45-3.2-64.01-14.15-5.41-3.05-10.46-7.04-14.7-11.75-10.3,8.69-25.64,18.13-43.65,18.13h-.03c-16.92-.01-32.46-10.52-39.59-26.77-6.81-15.51-4.26-31.97,6.81-44.02,4.05-4.41,8.78-6.72,13.35-8.96,2.07-1.01,4.22-2.07,6.25-3.3,6.17-3.74,12.23-8.8,18.01-15.02,10.64-11.47,19.78-24.67,28.62-37.44,9.33-13.47,18.97-27.4,30.56-39.65,4.89-5.17,10.71-10.2,16.34-15.06,13.1-11.32,26.65-23.02,31.33-38.36,2.88-9.44,6.11-18.96,9.25-28.18l.29-.85c-19.38-12.72-35.36-29.96-41.19-50.87-3.68-14.11-1.6-29.68,5.48-42.41,6.07-10.6,14.49-18.56,16.22-30.59,.25-1.51,.48-2.99,.69-4.45-32.97-29.14-38.64-60.03-44.12-89.93-1.17-6.37-2.38-12.95-3.83-19.3-.68-2.95-.06-6.06,1.7-8.53,1.77-2.48,4.52-4.1,7.55-4.43,4.23-.46,11-.98,20.14-.98,17.65,0,44.14,1.93,78.19,9.91,5-2.61,23.42-10.99,53.95-10.99,7.25,0,15.18,.47,23.77,1.61,1.71-5.42,4.04-10.68,6.43-15.81,2.26-4.76,4.93-9.54,7.63-14.08,5.56-9.39,10.79-19.16,19.99-26.08,3.89-2.95,8.25-4.4,12.59-4.4m0-2.08c-4.91,0-9.69,1.67-13.85,4.83-8.71,6.55-13.96,15.51-19.05,24.18-.49,.83-.98,1.67-1.47,2.5-3.18,5.36-5.71,10.03-7.72,14.25-2.11,4.53-4.28,9.37-5.99,14.42-7.58-.93-15.08-1.41-22.33-1.41-29.73,0-48.29,7.9-54.22,10.87-34.78-8.08-61.55-9.79-77.92-9.79-9.34,0-16.23,.54-20.37,.99-3.62,.4-6.91,2.33-9.02,5.3-2.1,2.96-2.84,6.67-2.03,10.21,1.44,6.28,2.64,12.81,3.8,19.14v.07c5.51,29.98,11.2,60.96,43.96,90.36-.18,1.2-.35,2.27-.52,3.3v.05c-1.14,7.87-5.4,14.03-9.92,20.54-2.04,2.95-4.16,6-6.05,9.31-7.43,13.35-9.5,29.37-5.69,43.97,6.72,24.06,25.56,40.99,40.72,51.19-3.07,9.03-6.23,18.34-9.04,27.57-4.5,14.77-17.82,26.27-30.7,37.39-5.66,4.89-11.52,9.95-16.49,15.21-11.7,12.37-21.39,26.36-30.76,39.89-8.8,12.71-17.9,25.85-28.44,37.21-5.65,6.09-11.55,11.02-17.56,14.66-1.96,1.19-4.06,2.22-6.09,3.21-4.74,2.32-9.65,4.72-13.97,9.42-11.65,12.67-14.34,29.97-7.19,46.26,7.46,17.01,23.75,28,41.5,28.02,18.04,0,33.37-9.16,43.49-17.36,4.03,4.17,8.79,7.85,13.86,10.71,20.28,11.35,44.15,13.39,64.93,14.42,4.29,.22,8.69,.33,13.09,.33,23.23,0,47.98-2.98,77.79-9.37,4.31,5.54,9.22,10.76,14.63,15.53,15.97,13.95,37.06,24.83,64.46,33.25,7.03,28.35,26.22,53.84,55.57,73.79,15.16,10.31,31.44,17.63,47.19,24.71,7.68,3.45,15.62,7.03,23.31,10.9,22.93,11.53,26.06,22.79,26.47,25.96,.52,3.99-.88,8.27-2.35,12.81-2.77,8.52-6.21,19.11,4.06,29.03,9.11,8.8,22.18,13.65,36.79,13.65,16.19,0,32.07-5.8,42.48-15.51,18.04-16.83,23.07-41.97,15.32-76.75,2.8,1.81,5.67,3.39,8.57,4.73,5.46,2.52,11.15,3.8,16.9,3.8,5.02,0,9.91-.98,14.55-2.92,10.71-4.47,19.31-13.81,23.58-25.61,13.22-36.56-6.11-81.76-24.86-113.47,2.27-16.69,2.02-35.49-.74-55.87-4.07-30.07-13.29-59.06-26.68-83.83-14.87-27.52-34.49-49.73-58.31-66.02-15.61-10.68-32.57-18.72-50.41-23.92-2.95-.86-13.99-3.07-19.35-4.13-4.13-5.12-19.44-25.42-23.22-49.04-3.85-24.08-12.92-45.25-16.08-52.13,12.76-54.24,1.77-90.76-9.74-111.86-10.77-19.76-23.84-30.09-28.29-33.23-.34-.73-.68-1.46-1.03-2.19-1.44-3.06-2.92-6.23-4.22-9.43-6.44-15.08-12.98-31.1-19.3-46.58l-1.69-4.13c-1.38-3.24-2.59-6.69-3.75-10.02-3.41-9.72-6.94-19.78-15.13-27.2-4.51-4.05-9.88-6.19-15.51-6.19h0Z"/></g></g></g></svg>